<svg width="256" height="256" viewBox="0 0 256 256" fill="none" xmlns="http://www.w3.org/2000/svg">
<path d="M53.2049 121.458C53.2051 120.029 53.4877 118.614 54.0361 117.295C54.5846 115.976 55.3882 114.778 56.401 113.77C57.414 112.762 58.6157 111.964 59.9377 111.422C61.2597 110.88 62.6758 110.604 64.1047 110.611L82.1763 110.67C85.0574 110.67 87.8207 111.814 89.8581 113.852C91.8956 115.889 93.0402 118.652 93.0402 121.534V189.865C95.0746 189.261 97.6875 188.617 100.547 187.944C102.533 187.478 104.302 186.354 105.569 184.755C106.836 183.156 107.525 181.175 107.525 179.135V94.3736C107.525 91.492 108.669 88.7285 110.707 86.6907C112.744 84.653 115.507 83.5081 118.389 83.5075H136.496C139.378 83.5081 142.141 84.653 144.178 86.6907C146.216 88.7285 147.36 91.492 147.36 94.3736V173.041C147.36 173.041 151.894 171.206 156.31 169.342C157.95 168.649 159.35 167.487 160.335 166.003C161.319 164.519 161.845 162.778 161.847 160.997V67.2136C161.847 64.3327 162.991 61.5696 165.028 59.5322C167.065 57.4949 169.828 56.3503 172.709 56.3496H190.816C193.697 56.3496 196.461 57.4941 198.498 59.5316C200.535 61.5689 201.68 64.3323 201.68 67.2136V144.442C217.379 133.064 233.288 119.381 245.912 102.928C247.745 100.539 248.957 97.7348 249.44 94.7645C249.924 91.7941 249.666 88.7499 248.687 85.9037C242.843 69.0898 233.555 53.6808 221.414 40.6629C209.273 27.6453 194.548 17.3052 178.182 10.3048C161.816 3.30437 144.168 -0.202366 126.369 0.00901851C108.569 0.220401 91.0103 4.14525 74.8151 11.5324C58.6197 18.9195 44.1447 29.6062 32.3166 42.9087C20.4884 56.211 11.5675 71.8363 6.12479 88.7844C0.682065 105.732 -1.16266 123.63 0.708665 141.332C2.57999 159.034 8.12617 176.15 16.9923 191.586C18.5368 194.248 20.809 196.415 23.5421 197.831C26.2751 199.247 29.3555 199.854 32.4216 199.58C35.8465 199.279 40.1109 198.852 45.1811 198.257C47.3882 198.006 49.4259 196.952 50.9059 195.296C52.3861 193.64 53.2051 191.497 53.207 189.276L53.2049 121.458Z" fill="#21325B"/>
<path d="M52.8088 231.055C71.8951 244.94 94.4509 253.276 117.98 255.138C141.51 256.997 165.096 252.314 186.128 241.602C207.161 230.889 224.819 214.568 237.151 194.443C249.482 174.317 256.006 151.172 255.999 127.569C255.999 124.624 255.863 121.71 255.667 118.813C208.923 188.529 122.615 221.121 52.8128 231.045" fill="#979695"/>
</svg>
